<svg width="760" height="796" viewBox="0 0 760 796" fill="none" xmlns="http://www.w3.org/2000/svg">
<path d="M484.813 229.984L548.597 231.672L634.657 297L631.445 590.974L614.105 614.844L594.196 636.829L548.597 674.518C525.477 689.803 520.951 712.245 477.279 716.768L403.954 725.149L402.664 615.489L408.005 598.267C415.544 465.808 407.404 386.791 413.629 251.394L403.954 253.84V226.761L484.813 229.984Z" fill="#90D5FF"/>
<path d="M633.367 297.003L546.938 231.731V674.196L559.838 665.409L570.803 656.623L582.412 647.208L593.377 637.167L614.017 614.573L623.692 602.648L632.077 590.096L633.367 297.003Z" fill="#507891"/>
<path d="M582.787 319.866L568.579 308.496L567.287 341.409L582.787 351.581V319.866Z" fill="white"/>
<path d="M606.037 333.629L594.412 325.85V358.762L606.037 365.345V333.629Z" fill="white"/>
<path d="M622.828 342.605L615.078 337.817L613.787 368.935L622.828 373.722V342.605Z" fill="white"/>
<path d="M583.433 369.534L569.224 359.959V395.265L583.433 402.446V369.534Z" fill="white"/>
<path d="M606.037 382.1L593.766 375.518V407.832L606.037 413.217V382.1Z" fill="white"/>
<path d="M622.828 390.478L613.787 387.486V416.808L622.828 420.398V390.478Z" fill="white"/>
<path d="M583.433 421.595L569.224 414.414V449.72L583.433 455.106V421.595Z" fill="white"/>
<path d="M606.037 431.169L593.766 425.185V458.696L606.037 462.287V431.169Z" fill="white"/>
<path d="M622.828 438.35L613.787 434.162V464.082L622.828 467.672V438.35Z" fill="white"/>
<path d="M583.433 477.247L569.224 470.066V505.372L583.433 510.758V477.247Z" fill="white"/>
<path d="M606.037 486.822L593.766 480.838V514.349L606.037 517.939V486.822Z" fill="white"/>
<path d="M622.828 494.003L613.787 489.814V519.734L622.828 523.325V494.003Z" fill="white"/>
<rect x="435.544" y="371.927" width="30.9999" height="43.0853" fill="white"/>
<rect x="487.211" y="308.497" width="30.9999" height="43.0853" fill="white"/>
<rect x="487.211" y="498.79" width="30.9999" height="43.0853" fill="white"/>
<path d="M132.004 610.733V362.488L168.816 343.347L172.046 651.409L163.65 644.231L150.733 631.669L141.691 622.098L132.004 610.733Z" fill="#90D5FF"/>
<path d="M147.504 373.125L137.171 376.715V396.463L147.504 393.471V373.125Z" fill="white"/>
<path d="M147.504 406.635L137.171 410.225V429.973L147.504 426.981V406.635Z" fill="white"/>
<path d="M147.504 440.146L137.171 443.736V463.483L147.504 460.491V440.146Z" fill="white"/>
<path d="M147.504 473.657L137.171 477.248V496.995L147.504 494.003V473.657Z" fill="white"/>
<path d="M147.504 507.168L137.171 510.758V530.506L147.504 527.514V507.168Z" fill="white"/>
<path d="M147.504 540.678L137.171 544.268V564.016L147.504 561.024V540.678Z" fill="white"/>
<path d="M147.504 574.188L137.171 577.779V597.526L147.504 594.534V574.188Z" fill="white"/>
<path d="M164.941 367.14L154.608 370.73V390.478L164.941 387.486V367.14Z" fill="white"/>
<path d="M164.941 400.65L154.608 404.241V423.988L164.941 420.996V400.65Z" fill="white"/>
<path d="M164.941 434.162L154.608 437.753V457.5L164.941 454.508V434.162Z" fill="white"/>
<path d="M164.941 467.673L154.608 471.263V491.011L164.941 488.019V467.673Z" fill="white"/>
<path d="M164.941 501.184L154.608 504.774V524.521L164.941 521.529V501.184Z" fill="white"/>
<path d="M164.941 534.693L154.608 538.284V558.031L164.941 555.039V534.693Z" fill="white"/>
<path d="M164.941 568.206L154.608 571.797V591.544L164.941 588.552V568.206Z" fill="white"/>
<path d="M401.399 296.769V235.75C466.12 233.358 522.114 259.672 533.022 324.885C541.81 377.425 498.116 410.031 473.392 420.001C523.568 444.528 538.112 470.252 538.112 513.922C538.112 596.236 439.213 612.827 389.764 610.833V549.216C414.489 553.803 463.938 551.49 463.938 505.547C463.938 459.603 414.489 450.909 389.764 452.305V385.903C446.776 385.903 460.545 355.194 460.302 339.84C459.139 302.511 420.549 295.572 401.399 296.769Z" fill="#1A445E" stroke="white" stroke-width="6"/>
<path d="M174.629 653.205V298.485L224.358 245.247V687.302C204.337 676.534 190.129 666.365 174.629 653.205Z" fill="#79B1D4"/>
<path d="M237.274 693.283V211.749L346.42 149.538L401.961 195V721.398L346.42 723.192L318.649 719.603L290.232 713.023L263.107 704.051L249.545 698.667L237.274 693.283Z" fill="#79B1D4"/>
<path d="M401.961 195.095L346.42 149.538V723.192L359.982 723.791H374.191H388.399L401.961 722.594V195.095Z" fill="#507891"/>
<path d="M387.753 438.351L359.982 435.957V481.436L387.753 486.223V438.351Z" fill="white"/>
<path d="M389.044 221.129L360.628 203.177V252.246L389.044 270.198V221.129Z" fill="white"/>
<path d="M389.044 294.134L360.628 276.182V328.841L389.044 340.81V294.134Z" fill="white"/>
<path d="M281.191 227.112L256.003 238.482V280.371L281.191 269.599V227.112Z" fill="white"/>
<path d="M281.191 297.725L256.003 306.701V346.794L281.191 340.81V297.725Z" fill="white"/>
<path d="M281.191 368.336L257.295 374.32V415.61L281.191 411.421V368.336Z" fill="white"/>
<path d="M281.191 439.548L257.295 441.343V483.83L281.191 482.633V439.548Z" fill="white"/>
<path d="M281.191 511.355H257.295V555.638L281.191 557.433V511.355Z" fill="white"/>
<path d="M326.399 205.569L301.212 216.939V258.828L326.399 248.056V205.569Z" fill="white"/>
<path d="M325.107 278.575L299.92 289.945V334.826L325.107 325.849V278.575Z" fill="white"/>
<path d="M325.107 355.172L299.92 360.558V408.43L325.107 403.044V355.172Z" fill="white"/>
<path d="M325.107 432.964L299.92 435.357V482.632L325.107 481.435V432.964Z" fill="white"/>
<path d="M325.107 509.561H299.92V558.63H325.107V509.561Z" fill="white"/>
<path d="M196.587 324.653L184.962 330.039V360.558L196.587 355.172V324.653Z" fill="white"/>
<path d="M196.587 371.329L184.962 376.715V407.234L196.587 401.848V371.329Z" fill="white"/>
<path d="M196.587 417.406L184.962 423.33V454.508L196.587 450.977V417.406Z" fill="white"/>
<path d="M196.587 470.066L184.962 475.991V507.168L196.587 503.637V470.066Z" fill="white"/>
<path d="M196.587 522.727L184.962 528.651V559.828L196.587 556.297V522.727Z" fill="white"/>
<path d="M196.587 575.386L184.962 581.31V612.487L196.587 608.956V575.386Z" fill="white"/>
<path d="M214.67 316.874L203.045 322.26V352.778L214.67 347.393V316.874Z" fill="white"/>
<path d="M214.67 363.549L203.045 368.934V399.453L214.67 394.068V363.549Z" fill="white"/>
<path d="M214.67 410.226L203.045 415.252V450.917L214.67 445.891V410.226Z" fill="white"/>
<path d="M214.67 462.886L203.045 467.912V503.577L214.67 498.551V462.886Z" fill="white"/>
<path d="M214.67 515.546L203.045 520.573V556.238L214.67 551.211V515.546Z" fill="white"/>
<path d="M214.67 568.206L203.045 573.233V608.898L214.67 603.871V568.206Z" fill="white"/>
<g filter="url(#filter0_d_747_724)">
<path d="M128.092 403.788C130.754 409.236 141.226 421.053 143.647 421.222C144.006 436.45 148.656 468.117 164.375 472.953C166.445 481.088 172.867 499.507 182.001 508.095C183.008 514.012 188.388 526.433 201.849 528.773C204.457 534.996 210.197 550.404 212.292 562.245C215.507 562.664 223.267 565.348 228.592 572.735C235.248 581.97 236.861 585.006 252.477 587.847C257.801 595.819 269.031 615.663 271.351 631.262C276.826 628.329 289.181 623.263 294.797 626.461C297.217 629.553 305.843 635.533 320.983 634.715C322.798 637.765 327.357 644.515 331.068 647.112C334.78 649.709 342.001 658.983 345.147 663.295C351.927 659.089 367.594 650.121 376.02 647.9C381.561 649.845 395.614 653.006 407.494 650.09C412.376 652.769 424.52 660.631 434.04 670.649C441.103 665.293 456.811 652.82 463.14 645.775C469.73 647.209 484.994 648.115 493.324 640.274C498.53 641.221 509.626 643.747 512.369 646.277L535.62 609.301C543.314 609.446 560.098 607.145 565.686 596.774C567.922 594.98 573.809 588.567 579.461 577.265L584.706 580.553C584.468 587.36 581.553 601.971 575.297 610.891C578.59 618.917 599.276 637.422 602.858 641.882C593.078 648.413 560.626 662.499 558.365 667.02C555.301 658.62 547.727 639.849 541.95 631.962C537.86 638.304 527.685 653.424 519.709 663.161L494.088 655.53C495.444 665.176 499.512 685.964 504.934 691.955C498.033 694.983 480.422 701.594 465.184 703.808C464.002 697.489 462.01 681.25 463.498 666.851C457.054 672.056 442.576 684.342 436.214 691.852L409.546 673.039L406.834 712.028L366.886 709.249L369.599 670.259C363.545 672.762 349.51 679.27 341.793 685.282L317.629 656.702C316.134 666.539 312.077 687.542 307.815 692.859L273.641 677.032L288.781 643L260.655 645.137C259.338 640.757 256.034 631.132 253.355 627.671C252.129 624.311 247.493 615.763 245.329 611.909C240.755 616.464 230.031 628.972 223.733 642.568L194.041 614.773C201.011 604.927 215.434 585.269 217.371 585.404C216.067 583.754 211.731 580.801 204.823 582.192C201.045 575.302 192.94 558.911 190.748 548.467C184.855 554.489 171.741 575.101 168.221 583.745C163.54 581.079 158.097 573.334 155.666 569.657C153.695 566.676 142.048 555.955 141.071 548.871C147.3 540.923 167.092 521.325 169.61 520.097C171.144 518.45 173.001 515.07 168.159 514.733C163.788 513.455 158.184 500.783 157.029 489.565C152.414 494.702 133.545 513.383 131.606 520.265C129.213 516.785 119.487 506.031 121.49 498.218C121.782 494.028 115.533 489.587 113.92 486.551C115.589 482.964 135.486 461.587 138.553 459.461C136.429 455.025 132.512 444.89 133.837 439.836L115.925 457.879C109.994 450.4 89.6732 443.585 119.091 412.584L111.554 409.408L112.674 393.389C116.913 399.352 124.719 402.806 128.092 403.788Z" fill="#1A445E"/>
<ellipse cx="152.215" cy="400.535" rx="14.6847" ry="14.0138" transform="rotate(3.98 152.215 400.535)" fill="#1A445E"/>
<ellipse cx="168.195" cy="452.952" rx="13.461" ry="12.7952" transform="rotate(3.98 168.195 452.952)" fill="#1A445E"/>
<ellipse cx="205.013" cy="505.596" rx="17.1322" ry="16.451" transform="rotate(3.98 205.013 505.596)" fill="#1A445E"/>
<ellipse cx="251.258" cy="563.781" rx="17.1322" ry="16.451" transform="rotate(3.98 251.258 563.781)" fill="#1A445E"/>
<ellipse cx="311.694" cy="611.963" rx="15.9085" ry="15.2324" transform="rotate(3.98 311.694 611.963)" fill="#1A445E"/>
<ellipse cx="394.03" cy="627.464" rx="17.1322" ry="16.451" transform="rotate(3.98 394.03 627.464)" fill="#1A445E"/>
<ellipse cx="476.499" cy="623.43" rx="14.6847" ry="14.0138" transform="rotate(3.98 476.499 623.43)" fill="#1A445E"/>
<ellipse cx="544.16" cy="585.383" rx="18.3559" ry="17.6696" transform="rotate(3.98 544.16 585.383)" fill="#1A445E"/>
</g>
<path d="M590.833 662.688C545.047 696.582 491.122 717.477 434.729 723.175C378.335 728.873 321.556 719.164 270.363 695.069C219.17 670.973 175.455 633.382 143.814 586.248C112.172 539.114 93.7747 484.179 90.5554 427.219C87.336 370.26 99.414 313.38 125.519 262.563C151.624 211.746 190.792 168.868 238.903 138.439C287.014 108.009 342.292 91.1531 398.922 89.6423C455.552 88.1314 511.443 102.022 560.717 129.853" stroke="#1A445E" stroke-width="48" stroke-linecap="round" stroke-linejoin="round"/>
<defs>
<filter id="filter0_d_747_724" x="99.5596" y="386.518" width="507.298" height="333.511" filterUnits="userSpaceOnUse" color-interpolation-filters="sRGB">
<feFlood flood-opacity="0" result="BackgroundImageFix"/>
<feColorMatrix in="SourceAlpha" type="matrix" values="0 0 0 0 0 0 0 0 0 0 0 0 0 0 0 0 0 0 127 0" result="hardAlpha"/>
<feOffset dy="4"/>
<feGaussianBlur stdDeviation="2"/>
<feComposite in2="hardAlpha" operator="out"/>
<feColorMatrix type="matrix" values="0 0 0 0 0 0 0 0 0 0 0 0 0 0 0 0 0 0 0.25 0"/>
<feBlend mode="normal" in2="BackgroundImageFix" result="effect1_dropShadow_747_724"/>
<feBlend mode="normal" in="SourceGraphic" in2="effect1_dropShadow_747_724" result="shape"/>
</filter>
</defs>
</svg>
